<svg xmlns="http://www.w3.org/2000/svg" fill="none" viewBox="0 0 273 39" height="39" width="273">
<path fill="#9DB2AF" d="M27.6355 0H11.3645C5.08894 0 0 5.08894 0 11.3645V27.6355C0 33.9111 5.08894 39 11.3645 39H27.6355C33.9111 39 39 33.9111 39 27.6355V11.3645C39 5.08894 33.9111 0 27.6355 0ZM34.3264 28.0188C32.0398 27.8819 29.8262 26.8459 28.174 24.9381C26.6314 23.1581 25.4082 21.1043 24.0298 19.1874C23.5506 18.5164 23.0805 17.8227 22.5146 17.2339C20.5475 15.1892 17.8547 15.2166 16.029 17.3846C14.9519 18.6579 14.0665 20.0956 13.1308 21.4877C11.9761 23.222 10.794 24.9198 9.11902 26.2115C7.8 27.2293 6.30755 27.7541 4.67817 27.9778V23.1444C6.08391 22.793 7.0378 21.8208 7.84564 20.6798C8.99579 19.0504 10.0318 17.3389 11.1957 15.7187C12.7977 13.4777 14.742 11.684 17.5899 11.1592C20.2554 10.6708 22.6561 11.2002 24.8103 12.8707C26.7455 14.3723 27.9869 16.4307 29.2968 18.4343C30.027 19.5434 30.7755 20.657 31.6427 21.6565C32.4232 22.5511 33.3634 23.0714 34.331 23.2129V28.0143L34.3264 28.0188Z"></path>
<path fill="#2C2C2C" d="M50.6016 33.6236L58.9447 4.42725H66.8679L75.1654 33.6236H70.5374L68.6205 26.741H57.1921L55.2752 33.6236H50.6061H50.6016ZM58.3194 22.5694H67.4932L63.2395 7.22046H62.5731L58.3194 22.5694Z"></path>
<path fill="#2C2C2C" d="M76.0007 33.6236V4.42725H87.5934C89.3734 4.42725 90.9663 4.78324 92.3674 5.49067C93.7732 6.19811 94.8685 7.2022 95.6627 8.49383C96.4568 9.78547 96.8493 11.3373 96.8493 13.1446V13.6877C96.8493 15.4951 96.4386 17.0515 95.617 18.3568C94.7955 19.6621 93.691 20.6662 92.3035 21.36C90.9115 22.0537 89.3414 22.4006 87.5888 22.4006H80.5008V33.6191H75.9961L76.0007 33.6236ZM80.5054 18.3157H87.137C88.7207 18.3157 89.985 17.9004 90.9343 17.0652C91.8791 16.2299 92.3537 15.0935 92.3537 13.6467V13.2313C92.3537 11.7571 91.8791 10.6024 90.9343 9.77177C89.9895 8.93655 88.7253 8.52122 87.137 8.52122H80.5054V18.3203V18.3157Z"></path>
<path fill="#2C2C2C" d="M116.457 34.2078C114.147 34.2078 112.166 33.7925 110.514 32.9573C108.857 32.122 107.58 30.9217 106.676 29.3516C105.772 27.7816 105.32 25.8693 105.32 23.6192V4.42725H109.866V23.7378C109.866 25.7962 110.437 27.38 111.578 28.4936C112.719 29.6072 114.343 30.1641 116.457 30.1641C118.57 30.1641 120.195 29.6072 121.336 28.4936C122.477 27.38 123.047 25.7962 123.047 23.7378V4.42725H127.552V23.6146C127.552 25.8647 127.105 27.777 126.219 29.3471C125.329 30.9171 124.051 32.122 122.381 32.9527C120.71 33.7879 118.739 34.2033 116.457 34.2033V34.2078Z"></path>
<path fill="#2C2C2C" d="M130.427 33.6236V13.0625H134.64V16.1478H135.306C135.694 15.3126 136.392 14.5367 137.392 13.811C138.392 13.0899 139.879 12.7247 141.856 12.7247C143.412 12.7247 144.795 13.0716 146.004 13.7653C147.214 14.4591 148.168 15.4404 148.862 16.7046C149.555 17.9689 149.902 19.4933 149.902 21.2732V33.6191H145.607V21.6064C145.607 19.8264 145.16 18.512 144.275 17.6631C143.385 16.8141 142.161 16.3897 140.605 16.3897C138.825 16.3897 137.401 16.9739 136.329 18.1423C135.256 19.3107 134.722 21.0085 134.722 23.2312V33.6145H130.427V33.6236Z"></path>
<path fill="#2C2C2C" d="M155.114 10.2646C154.279 10.2646 153.576 9.99537 153.01 9.45224C152.44 8.90912 152.157 8.20625 152.157 7.34821C152.157 6.4856 152.44 5.78273 153.01 5.24417C153.581 4.70104 154.284 4.43176 155.114 4.43176C155.945 4.43176 156.684 4.70104 157.241 5.24417C157.798 5.78729 158.076 6.49016 158.076 7.34821C158.076 8.21082 157.798 8.91368 157.241 9.45224C156.684 9.99537 155.977 10.2646 155.114 10.2646ZM152.946 33.619V13.0624H157.241V33.6236H152.946V33.619Z"></path>
<path fill="#2C2C2C" d="M164.206 33.6236V16.6909H158.451V13.0625H164.206V8.55773C164.206 7.30718 164.58 6.30764 165.333 5.55457C166.082 4.80606 167.086 4.42725 168.336 4.42725H173.635V8.05568H169.715C168.907 8.05568 168.505 8.47101 168.505 9.30624V13.0579H174.429V16.6863H168.505V33.6191H164.211L164.206 33.6236Z"></path>
<path fill="#2C2C2C" d="M184.48 34.2079C182.421 34.2079 180.596 33.7834 178.994 32.9345C177.396 32.0856 176.137 30.8715 175.219 29.2832C174.302 27.6995 173.841 25.8237 173.841 23.6512V23.0259C173.841 20.858 174.302 18.9867 175.219 17.4166C176.137 15.8466 177.396 14.628 178.994 13.7654C180.591 12.9028 182.421 12.4738 184.48 12.4738C186.538 12.4738 188.373 12.9073 189.984 13.7654C191.595 14.628 192.864 15.842 193.781 17.4166C194.699 18.9867 195.16 20.858 195.16 23.0259V23.6512C195.16 25.8191 194.699 27.6949 193.781 29.2832C192.864 30.867 191.6 32.0856 189.984 32.9345C188.373 33.7834 186.538 34.2079 184.48 34.2079ZM184.48 30.3695C186.369 30.3695 187.907 29.767 189.089 28.5575C190.271 27.3481 190.86 25.6731 190.86 23.5325V23.1583C190.86 21.0177 190.276 19.3427 189.108 18.1332C187.939 16.9237 186.397 16.3167 184.48 16.3167C182.563 16.3167 181.093 16.9237 179.911 18.1332C178.729 19.3427 178.14 21.0177 178.14 23.1583V23.5325C178.14 25.6731 178.729 27.3481 179.911 28.5575C181.093 29.767 182.613 30.3695 184.48 30.3695Z"></path>
<path fill="#2C2C2C" d="M197.364 33.6236V13.0624H201.576V15.4814H202.243C202.576 14.6188 203.11 13.9889 203.849 13.5827C204.584 13.1811 205.497 12.9757 206.583 12.9757H209.043V16.8552H206.414C205.022 16.8552 203.886 17.2386 202.996 18.0008C202.106 18.7675 201.663 19.9405 201.663 21.5242V33.619H197.368L197.364 33.6236Z"></path>
<path fill="#2C2C2C" d="M210.376 33.6236V13.0624H214.589V15.4814H215.255C215.643 14.7603 216.268 14.1213 217.131 13.5645C217.994 13.0077 219.162 12.7292 220.636 12.7292C222.11 12.7292 223.397 13.0442 224.329 13.6694C225.26 14.2947 225.962 15.0934 226.433 16.0656H227.099C227.574 15.1208 228.258 14.3267 229.162 13.6877C230.066 13.0487 231.353 12.7292 233.019 12.7292C234.351 12.7292 235.533 12.9985 236.565 13.5417C237.592 14.0848 238.413 14.8926 239.025 15.9606C239.636 17.0332 239.942 18.3568 239.942 19.945V33.6236H235.647V20.2782C235.647 19.0277 235.305 18.0601 234.625 17.38C233.945 16.7 232.977 16.3577 231.727 16.3577C230.394 16.3577 229.322 16.7913 228.514 17.6493C227.706 18.5119 227.304 19.7488 227.304 21.3599V33.6236H223.01V20.2782C223.01 19.0277 222.667 18.0601 221.987 17.38C221.307 16.7 220.34 16.3577 219.089 16.3577C217.756 16.3577 216.684 16.7913 215.876 17.6493C215.068 18.5119 214.666 19.7488 214.666 21.3599V33.6236H210.372H210.376Z"></path>
<path fill="#2C2C2C" d="M251.416 34.2079C248.801 34.2079 246.633 33.6237 244.908 32.4553C243.182 31.2869 242.128 29.5206 241.74 27.1564L245.743 26.1979C245.967 27.3389 246.341 28.2426 246.87 28.909C247.4 29.5753 248.057 30.05 248.851 30.3284C249.645 30.6068 250.499 30.7437 251.416 30.7437C252.776 30.7437 253.826 30.479 254.565 29.9496C255.3 29.4202 255.67 28.7401 255.67 27.9049C255.67 27.0697 255.323 26.4581 254.629 26.0701C253.935 25.6822 252.904 25.3627 251.544 25.1117L250.124 24.8606C248.732 24.6096 247.468 24.2491 246.327 23.7744C245.186 23.2997 244.282 22.6471 243.616 21.8164C242.95 20.9812 242.617 19.9132 242.617 18.6033C242.617 16.659 243.338 15.1483 244.784 14.0803C246.231 13.0123 248.148 12.4738 250.54 12.4738C252.849 12.4738 254.743 12.9941 256.231 14.0392C257.719 15.0798 258.687 16.4947 259.129 18.2747L255.127 19.402C254.876 18.1515 254.346 17.2706 253.543 16.7549C252.735 16.2391 251.736 15.9835 250.54 15.9835C249.344 15.9835 248.454 16.198 247.788 16.6316C247.121 17.0652 246.788 17.6677 246.788 18.4481C246.788 19.2834 247.117 19.8949 247.769 20.2829C248.422 20.6708 249.307 20.9629 250.417 21.1592L251.877 21.4102C253.351 21.6612 254.698 22.0081 255.921 22.4508C257.144 22.8981 258.112 23.5371 258.819 24.3677C259.526 25.203 259.882 26.3166 259.882 27.7041C259.882 29.7625 259.116 31.3599 257.587 32.5009C256.058 33.6419 253.999 34.2124 251.416 34.2124V34.2079Z"></path>
<path fill="#2C2C2C" d="M267.012 34.5729V31.5743H265.939V31.0859H268.623V31.5743H267.55V34.5729H267.012Z"></path>
<path fill="#2C2C2C" d="M269.111 34.5729V31.0814H270.124L270.886 34.2124H270.964L271.726 31.0814H272.739V34.5729H272.214V31.4602H272.137L271.379 34.5729H270.471L269.713 31.4602H269.636V34.5729H269.111Z"></path>
</svg>
